<?xml version="1.0" encoding="utf-8"?>
<!-- Generator: Adobe Illustrator 24.2.3, SVG Export Plug-In . SVG Version: 6.00 Build 0)  -->
<svg version="1.1" xmlns="http://www.w3.org/2000/svg" xmlns:xlink="http://www.w3.org/1999/xlink" x="0px" y="0px" width="1000px"
	 height="653.36px" viewBox="0 0 1000 653.36" style="enable-background:new 0 0 1000 653.36;" xml:space="preserve">
<style type="text/css">
	.st0{fill:#F0F9FC;}
	.st1{fill:#FFFFFF;}
	.st2{fill:#6A79A8;}
	.st3{fill:#BBDFF5;}
	.st4{fill:#FF9C81;}
</style>
<g id="_x2014_ÎÓÈ_x5F_1_x5F_1_x5F_">
</g>
<g id="_x2014_ÎÓÈ_x5F_2">
</g>
<g id="_x2014_ÎÓÈ_x5F_3">
</g>
<g id="_x2014_ÎÓÈ_x5F_4">
	<g>
		<g>
			<path class="st0" d="M285.9,630.91c-20.23-3.25-263.26-32.5-245.37-248.24S80.88,102.04,175.37,78.31
				c94.49-23.74,324.17-136.06,504.4-29.26C860,155.85,1054.49,251.64,977.31,422.16s-89.81,227.41-291.18,218.71
				S382.09,646.35,285.9,630.91z"/>
		</g>
		<g id="XMLID_19_">
			<g id="XMLID_24_">
				<path class="st1" d="M932.06,263.46H655.42c-10.79,0-19.62-8.83-19.62-19.62v-4.93c0-10.79,8.83-19.62,19.62-19.62h276.64
					c10.79,0,19.62,8.83,19.62,19.62v4.93C951.68,254.63,942.85,263.46,932.06,263.46z"/>
			</g>
			<g id="XMLID_23_">
				<path class="st1" d="M956.13,204.05h-111.9c-9.69,0-17.61-7.93-17.61-17.61l0,0c0-9.69,7.93-17.61,17.61-17.61h111.9
					c9.69,0,17.61,7.93,17.61,17.61l0,0C973.74,196.12,965.82,204.05,956.13,204.05z"/>
			</g>
			<g id="XMLID_22_">
				<path class="st1" d="M977.07,312.36h-111.9c-9.69,0-17.61-7.93-17.61-17.61l0,0c0-9.69,7.93-17.61,17.61-17.61h111.9
					c9.69,0,17.61,7.93,17.61,17.61l0,0C994.68,304.43,986.76,312.36,977.07,312.36z"/>
			</g>
			<g id="XMLID_21_">
				<path class="st1" d="M918.29,278.53c-5.46,0-9.88-3.37-9.88-7.54s4.42-7.54,9.88-7.54h-43.1c5.46,0,9.88,3.37,9.88,7.54
					s-4.42,7.54-9.88,7.54H918.29z"/>
			</g>
			<g id="XMLID_20_">
				<path class="st1" d="M932.25,219.78c-5.69,0-10.31-3.52-10.31-7.87s4.62-7.87,10.31-7.87h-44.99c5.69,0,10.31,3.52,10.31,7.87
					s-4.62,7.87-10.31,7.87H932.25z"/>
			</g>
		</g>
		<g id="XMLID_11_">
			<g id="XMLID_18_">
				<path class="st1" d="M66.59,400.87h276.64c10.79,0,19.62,8.83,19.62,19.62v4.93c0,10.79-8.83,19.62-19.62,19.62H66.59
					c-10.79,0-19.62-8.83-19.62-19.62v-4.93C46.97,409.7,55.8,400.87,66.59,400.87z"/>
			</g>
			<g id="XMLID_17_">
				<path class="st1" d="M42.51,460.29h111.9c9.69,0,17.61,7.93,17.61,17.61l0,0c0,9.69-7.93,17.61-17.61,17.61H42.51
					c-9.69,0-17.61-7.93-17.61-17.61l0,0C24.9,468.21,32.82,460.29,42.51,460.29z"/>
			</g>
			<g id="XMLID_16_">
				<path class="st1" d="M21.57,351.98h111.9c9.69,0,17.61,7.93,17.61,17.61l0,0c0,9.69-7.93,17.61-17.61,17.61H21.57
					c-9.69,0-17.61-7.93-17.61-17.61l0,0C3.96,359.9,11.89,351.98,21.57,351.98z"/>
			</g>
			<g id="XMLID_15_">
				<path class="st1" d="M80.35,385.8c5.46,0,9.88,3.37,9.88,7.54c0,4.16-4.42,7.54-9.88,7.54h43.1c-5.46,0-9.88-3.37-9.88-7.54
					c0-4.16,4.42-7.54,9.88-7.54H80.35z"/>
			</g>
			<g id="XMLID_12_">
				<path class="st1" d="M66.39,444.55c5.69,0,10.31,3.52,10.31,7.87s-4.62,7.87-10.31,7.87h44.99c-5.69,0-10.31-3.52-10.31-7.87
					s4.62-7.87,10.31-7.87H66.39z"/>
			</g>
		</g>
		<g>
			<g id="XMLID_2_">
				<path class="st1" d="M340.52,280.56l0.01,314.6c0,7.66,6.23,13.87,13.91,13.87l283.45-0.01c7.68,0,13.91-6.21,13.91-13.87
					l0-49.03l-0.23-27.02l-0.01-298.76c0-7.66-6.23-13.87-13.91-13.87l-223.05,0.01l-74.08,74.02L340.52,280.56z"/>
				<path class="st2" d="M354.44,610.6c-8.54,0-15.49-6.93-15.49-15.45l-0.01-314.6c0-0.01,0-0.02,0-0.04l0-0.07
					c0.01-0.41,0.18-0.79,0.46-1.08l74.07-74.02c0.3-0.3,0.7-0.46,1.12-0.46l223.05-0.01c8.54,0,15.49,6.93,15.49,15.45l0.01,298.76
					l0.23,27.01l0,49.04c0,8.52-6.95,15.45-15.49,15.45L354.44,610.6z M342.1,281.15l0.01,314.01c0,6.77,5.53,12.28,12.33,12.28
					l283.45-0.01c6.8,0,12.33-5.51,12.33-12.28l0-49.03l-0.23-27.01l-0.01-298.77c0-6.77-5.53-12.28-12.33-12.28l-222.39,0.01
					L342.1,281.15z M340.59,280.55l-0.07,0L340.59,280.55L340.59,280.55z"/>
			</g>
			<g id="XMLID_1_">
				<path class="st2" d="M340.52,282.29c-0.64,0-1.22-0.39-1.46-0.98c-0.24-0.59-0.11-1.27,0.34-1.72l74.23-74.23
					c0.45-0.45,1.13-0.59,1.72-0.34c0.59,0.24,0.98,0.82,0.98,1.46l0,59.63c0,8.92-7.26,16.19-16.19,16.19L340.52,282.29z
					 M413.17,210.3l-68.83,68.83l55.81,0c7.18,0,13.02-5.84,13.02-13.02L413.17,210.3z"/>
			</g>
			<g>
				<g>
					<path class="st3" d="M558.37,429.44H427.75c-1.31,0-2.37-1.06-2.37-2.37c0-1.31,1.06-2.37,2.37-2.37h130.62
						c1.31,0,2.37,1.06,2.37,2.37C560.74,428.38,559.68,429.44,558.37,429.44z"/>
				</g>
				<g>
					<path class="st2" d="M615.99,515.17H370.13c-0.87,0-1.58-0.71-1.58-1.58s0.71-1.58,1.58-1.58h245.86
						c0.87,0,1.58,0.71,1.58,1.58S616.86,515.17,615.99,515.17z"/>
				</g>
				<g>
					<path class="st2" d="M615.99,480.56H370.13c-0.87,0-1.58-0.71-1.58-1.58c0-0.87,0.71-1.58,1.58-1.58h245.86
						c0.87,0,1.58,0.71,1.58,1.58C617.57,479.85,616.86,480.56,615.99,480.56z"/>
				</g>
				<g>
					<path class="st2" d="M493.98,549.78H370.13c-0.87,0-1.58-0.71-1.58-1.58c0-0.87,0.71-1.58,1.58-1.58h123.85
						c0.87,0,1.58,0.71,1.58,1.58C495.57,549.08,494.86,549.78,493.98,549.78z"/>
				</g>
			</g>
			<g>
				<path class="st2" d="M447.68,357.32c-0.4,0-0.8-0.15-1.11-0.46c-0.62-0.61-0.63-1.62-0.01-2.24
					c0.76-0.77,18.98-18.86,49.75-18.86c30.74,0,48.67,16.54,49.41,17.25c0.64,0.6,0.67,1.6,0.07,2.24c-0.6,0.64-1.6,0.67-2.24,0.07
					c-0.18-0.16-17.82-16.39-47.25-16.39c-29.46,0-47.32,17.74-47.5,17.92C448.49,357.16,448.08,357.32,447.68,357.32z"/>
			</g>
			<g>
				<circle class="st2" cx="432.99" cy="315.67" r="7.12"/>
			</g>
			<g>
				<circle class="st2" cx="557.39" cy="315.67" r="7.12"/>
			</g>
		</g>
		<g>
			<g>
				<path class="st1" d="M473.88,155.6l-201.43,24.05c-9.46,1.13-18.04-5.62-19.17-15.08L242.46,73.9
					c-1.13-9.46,5.62-18.04,15.08-19.17l201.43-24.05c9.46-1.13,18.04,5.62,19.17,15.08l10.82,90.66
					C490.09,145.88,483.34,154.47,473.88,155.6z"/>
			</g>
			<g>
				<path class="st4" d="M481.79,163.51l-201.43,24.05c-9.46,1.13-18.04-5.62-19.17-15.08l-10.82-90.66
					c-1.13-9.46,5.62-18.04,15.08-19.17L466.88,38.6c9.46-1.13,18.04,5.62,19.17,15.08l10.82,90.66
					C498,153.79,491.25,162.38,481.79,163.51z"/>
			</g>
			<g>
				<path class="st2" d="M267.25,181.75c-7.6,0-14.19-5.7-15.11-13.43l-11.68-97.81c-0.48-4.04,0.64-8.03,3.15-11.22
					c2.52-3.2,6.13-5.22,10.16-5.71l208.58-24.9c8.34-1,15.93,4.98,16.93,13.32l11.68,97.81c0.48,4.04-0.64,8.03-3.15,11.22
					c-2.52,3.2-6.13,5.22-10.16,5.71l-208.58,24.9C268.45,181.71,267.85,181.75,267.25,181.75z M464.17,31.74
					c-0.48,0-0.96,0.03-1.44,0.09l-208.58,24.9c-3.2,0.38-6.06,1.99-8.05,4.52c-1.99,2.53-2.88,5.69-2.5,8.89l11.68,97.81
					c0.79,6.61,6.81,11.34,13.41,10.55l208.58-24.9l0.19,1.57l-0.19-1.57c3.2-0.38,6.06-1.99,8.05-4.52
					c1.99-2.53,2.88-5.69,2.5-8.89l-11.68-97.81C475.41,36.26,470.19,31.74,464.17,31.74z"/>
			</g>
			<g>
				<path class="st1" d="M309.89,141.23l-1.19-9.94l-26.83,3.2c-3.39,0.4-6.02-0.06-7.89-1.39c-1.88-1.33-2.97-3.31-3.29-5.95
					c-0.08-0.68-0.04-1.38,0.13-2.1c0.17-0.72,0.45-1.5,0.86-2.33c0.41-0.83,0.84-1.63,1.29-2.4c0.45-0.78,1-1.73,1.67-2.86
					l23.81-41.28c1.55-2.71,2.86-4.71,3.92-5.97c1.06-1.27,2.43-2,4.1-2.2c5.42-0.65,8.5,2.13,9.24,8.33l4.94,41.37l2.3-0.27
					c2.74-0.33,4.99-0.22,6.74,0.33c1.75,0.55,2.77,2.09,3.07,4.62c0.25,2.07-0.25,3.65-1.49,4.76c-1.24,1.11-3.22,1.82-5.92,2.14
					l-3.26,0.39l1.19,9.94c0.33,2.75-0.04,4.86-1.09,6.34c-1.05,1.48-2.59,2.34-4.62,2.59c-2,0.24-3.69-0.26-5.08-1.48
					C311.07,145.85,310.21,143.9,309.89,141.23z M284.29,122.05l22.99-2.74l-3.71-31.06L284.29,122.05z"/>
				<path class="st1" d="M392.71,99.24c0.7,5.84,0.94,10.91,0.73,15.2c-0.21,4.29-1.07,8.26-2.59,11.91
					c-1.92,4.5-4.67,8.11-8.25,10.85c-3.58,2.74-7.72,4.39-12.42,4.95c-5.42,0.65-10.46-0.31-15.12-2.86
					c-4.66-2.55-8.4-6.41-11.22-11.56c-1.46-2.83-2.66-6-3.6-9.52c-0.95-3.52-1.67-7.36-2.16-11.53
					c-0.64-5.38-0.94-10.26-0.88-14.64c0.05-4.38,0.5-8.19,1.34-11.44c1.49-5.38,4.08-9.66,7.77-12.83
					c3.69-3.17,8.31-5.09,13.87-5.75c3.67-0.44,7.07-0.24,10.21,0.6c3.14,0.84,5.97,2.27,8.51,4.3c2.54,2.03,4.79,4.64,6.76,7.84
					C389.08,80.32,391.43,88.48,392.71,99.24z M377.94,99.92c-0.78-6.52-1.81-11.81-3.09-15.87c-1.28-4.06-2.97-7.04-5.08-8.94
					c-2.11-1.9-4.8-2.65-8.08-2.26c-4.7,0.56-7.69,3.32-8.96,8.28c-1.27,4.96-1.31,12.37-0.14,22.25c0.8,6.7,1.85,12.14,3.14,16.32
					c1.29,4.18,3,7.26,5.11,9.23c2.11,1.97,4.76,2.77,7.93,2.39c3.28-0.39,5.71-1.84,7.29-4.34c1.58-2.5,2.49-5.92,2.73-10.25
					C379.05,112.41,378.76,106.8,377.94,99.92z"/>
				<path class="st1" d="M440,125.69l-1.19-9.94l-26.83,3.2c-3.39,0.4-6.02-0.06-7.89-1.39c-1.88-1.33-2.97-3.31-3.29-5.95
					c-0.08-0.68-0.04-1.38,0.13-2.1c0.17-0.72,0.45-1.5,0.86-2.33c0.41-0.83,0.84-1.63,1.28-2.4c0.45-0.78,1-1.73,1.67-2.86
					l23.81-41.28c1.55-2.72,2.86-4.71,3.92-5.97c1.06-1.26,2.43-2,4.1-2.2c5.42-0.65,8.5,2.13,9.24,8.33l4.94,41.37l2.3-0.27
					c2.74-0.33,4.99-0.22,6.74,0.33c1.75,0.55,2.77,2.09,3.07,4.62c0.25,2.07-0.25,3.65-1.49,4.76c-1.24,1.11-3.22,1.82-5.92,2.14
					l-3.26,0.39l1.19,9.94c0.33,2.75-0.03,4.86-1.09,6.34c-1.05,1.48-2.59,2.34-4.62,2.59c-2,0.24-3.69-0.26-5.08-1.48
					C441.18,130.32,440.32,128.37,440,125.69z M414.4,106.52l22.99-2.74l-3.71-31.06L414.4,106.52z"/>
			</g>
		</g>
		<g>
			<path class="st2" d="M710.26,411.16c-0.06,0-0.12,0-0.18-0.01c-27.21-3.07-41.95-15.6-49.51-25.57
				c-8.02-10.56-10.5-21.52-10.5-24.31c0-0.87,0.71-1.58,1.58-1.58c0,0,0,0,0,0c0.87,0,1.58,0.71,1.58,1.58
				c0,1.46,1.81,11.8,9.85,22.4c7.19,9.47,21.25,21.39,47.35,24.33c0.87,0.1,1.49,0.88,1.39,1.75
				C711.74,410.56,711.05,411.16,710.26,411.16z"/>
		</g>
		<g>
			<path class="st2" d="M340.52,364.62c-0.02,0-0.04,0-0.05,0c-1.86-0.06-12.3-1.82-25.85-8.78c-11.91-6.12-29.26-17.91-44.28-39.34
				c-0.5-0.72-0.33-1.7,0.39-2.2c0.72-0.5,1.7-0.33,2.2,0.39c29.55,42.17,67.28,46.76,67.64,46.78c0.87,0.03,1.56,0.76,1.53,1.64
				C342.07,363.95,341.37,364.62,340.52,364.62z"/>
		</g>
		<g>
			<path class="st2" d="M276.05,362.14c-0.79,0-1.48-0.59-1.57-1.4l-24.66-210.85c-0.1-0.87,0.52-1.65,1.39-1.76
				c0.87-0.1,1.65,0.52,1.76,1.39l24.66,210.85c0.1,0.87-0.52,1.65-1.39,1.76C276.18,362.13,276.12,362.14,276.05,362.14z"/>
		</g>
		<g>
			<g>
				<path class="st2" d="M483.24,643.77c-0.87,0-1.58-0.71-1.58-1.58v-33.17c0-0.87,0.71-1.58,1.58-1.58c0.87,0,1.58,0.71,1.58,1.58
					v33.17C484.82,643.07,484.11,643.77,483.24,643.77z"/>
			</g>
			<g>
				<path class="st2" d="M509.09,643.77c-0.87,0-1.58-0.71-1.58-1.58v-33.17c0-0.87,0.71-1.58,1.58-1.58c0.87,0,1.58,0.71,1.58,1.58
					v33.17C510.67,643.07,509.96,643.77,509.09,643.77z"/>
			</g>
		</g>
	</g>
</g>
</svg>
